# xmcd
#
# Track frame offsets:
#	150
#	21861
#	35640
#	48740
#	70610
#	82494
#	94019
#	108714
#	122210
#	134222
#	146422
#	162905
#	172836
#	184900
#	210071
#	234400
#	254484
#	272530
#	285918
#	301213
#
# Disc length: 4162 seconds
#
# Revision: 0
# Processed by: cddbd v1.5.2PL0 Copyright (c) Steve Scherf et al.
# Submitted via: audiograbber 1.83.01
#
DISCID=21104014
DTITLE=Various Artist - Melodien Fuer Millionen - Doktor Schiwago - CD2
DYEAR=2011
DGENRE=Pop
TTITLE0=Vangelis - Conquest of paradise
TTITLE1=James Galway - Die Dornenvögel (The thorn birds theme)
TTITLE2=Paul Potts and London Symphony Orchestra - Nessun Dorma
TTITLE3=John Alldis Choir and London Symphony Orchestra - Gloria all'Egitto, ad I
TTITLE3=solde
TTITLE4=Boston Symphony Orchestra with Seiji Ozawa - O Fortuna
TTITLE5=Percy Faith and His Orchestra - The girl from Ipanema
TTITLE6=Orchester Jo Kurzweg - Ich sende dir Rosen
TTITLE7=Tanzorchester des Berliner Rundfunks - Wild cat blues
TTITLE8=Günter Gollasch und Rhythmusgruppe - Petite Fleur
TTITLE9=Henry Mancini and His Orchestra - Moon river
TTITLE10=Edward Simoni - El condor pasa
TTITLE11=Anton Karas - Harry Lime Theme
TTITLE12=Ray Conniff and HIs Orchestra - Summertime
TTITLE13=Miles Davis - Time after time
TTITLE14=The Dave Brubeck Quartet - Take five
TTITLE15=Swing Dance Orchestra - Moonlight serenade
TTITLE16=Kenny G - Songbird
TTITLE17=Peter Thomas Sound Orchestra - Melissa
TTITLE18=Rondo Veneziano - San Marco
TTITLE19=Amiga-Studio-Orchester and Gerd Michaelis Chor - Ein Kuss zum Abschied
EXTD=
EXTT0=
EXTT1=
EXTT2=
EXTT3=
EXTT4=
EXTT5=
EXTT6=
EXTT7=
EXTT8=
EXTT9=
EXTT10=
EXTT11=
EXTT12=
EXTT13=
EXTT14=
EXTT15=
EXTT16=
EXTT17=
EXTT18=
EXTT19=
PLAYORDER=
